<?xml version="1.0" encoding="UTF-8"?>
<svg id="Calque_2" data-name="Calque 2" xmlns="http://www.w3.org/2000/svg" width="95.75mm" height="99.89mm" viewBox="0 0 271.41 283.14">
  <g id="Calque_1-2" data-name="Calque 1">
    <g>
      <path d="M200.76,213.99c-1.07,2.59-11.9-1.76-21.26.37l-14.97,3.41c-14.31,3.26-26.69,11.64-37.75,21.21-7.78-4.57-15.46-8.78-23.64-12.18-5.13-1.86-9.91-2.97-15.46-3.05-22.62-2.23-44.57,2.81-64.22,15.5,6.95-17.81,20.04-31.18,36.22-40.35,17.08-9.67,35.95-14.43,55.54-11.88,5.16.58,9.84,1.77,15.07,3.82v-97.07s12.91-.06,12.91-.06l.19,9.62c10.85-3,15.83-16.24,18.03-26.43,1.44-6.68.82-13.33-.62-20.07-2.52-11.15-9.53-20.38-20.01-25.21l-19.93,13.62-.05,105.78c0,4.35-2.02,8.32-4.12,11.73-5.03,8.19-12.22,13.93-20.72,18.37-5.11,2.67-11.12,4.8-16.9,4.87-.67,0-1.73-1.64-1.64-2.26.36-2.45,3.05-3.45,3.25-5.02.37-2.92,2.07-6.29,2.08-9.29l.36-106.06c.02-5.11,4.21-10.9,8.29-13.71L163.57,0c18.37,6.69,29.57,19.5,31.67,39.26.82,7.7.49,14.93-2.02,22.38-5.1,15.16-13.48,28.5-24.78,39.64l9.89,2.1c4.98,1.05,13.72,6.98,16.68,12.2,6.15-5.72,11.9-11.43,18.4-16.5,4.36-3.4,8.26-6.72,12.4-10.41l.3-4.15c4.9,6.69,16.31,21.29,25.69,19.82,3.78-.59,6.69-2.87,10.62-4.49.83,12.3-7.07,24.2-17.48,29.39l.03,74.37c0,4.08,2.41,8.34,5.77,10.22,6,3.35,12.97,2.8,19.21.33.54.4,1.17,1.54,1.45,2.55l-29.86,28.86c-9.26-.31-17.68-3.88-24.38-10.53-4-3.97-7.93-9.15-7.94-15.25l-.12-90.23c-4.03-.68-6.37-2.81-8.1-6.4l-4.36,2.61.06,77.71c0,4.16,5.03,8.15,4.05,10.5ZM156.94,122.54c0-1.67-1.72-3.94-3.21-4.29l-5.51-1.28c-1.49-.35-3.68-1.42-4.93-.26l.04,15.75c4.64,2.02,8.97,1.54,13.61-.09v-9.83ZM156.9,162.92l.07-17.04c-4.8,1.27-8.97,1.27-13.65-.27l-.02,17.07c4.84-1.99,8.8-1.4,13.59.23ZM156.97,205.84l-.02-29.98-3.72-.55c-3.27-.49-7.28-.61-9.94,1.59v20.22s13.67,8.73,13.67,8.73Z" fill="#fff"/>
      <path d="M35.07,198.81l.06-58.38c-2.62.26-5.39.57-7.23,2.32-2.45,2.34-2.69,5.94-3.02,9.27l-8.93-7.8c-5.78-5.05-6.05-18.84-4.6-26.14,2.33-11.71,11.84-17.28,23.42-18.81-3.18-26.8,19-46.8,43.33-52.06-14.03-.43-26.92-2.56-40-6.89-5.69-1.88-11.12-3.55-17.03-4.6-8.3-1.47-14.63,2.42-20.8,8.2-.89-5.06.56-9.89,2.51-14.56,2.6-6.24,6.57-11.16,12.01-15.16C25.96,5.98,39.16,2.48,53.04,4.26c10.2,1.31,19.7,3.67,29.43,6.82,14.5,4.7,24.28,9.22,37.96-.19.52-.36,1.6-.58,2.09-.41.6.21,1.15,1.62,1.03,2.4-1.06,6.61-4.17,12.12-9.08,16.57-10.83,9.82-18.94,13.38-33.12,17.33l.7,2.41c-4.01,2.91-6.81,7.16-6.81,12.6l-.13,104.97c-.01,8.34-3.93,15.68-8.88,21.95s-10.74,10.53-17.09,14.87c-5.32,3.64-11.25,5.98-17.94,5.59,2.03-.95,3.89-10.42,3.89-10.35Z" fill="#fff"/>
      <path d="M246.02,272.23l-14.73,10.9c-4.17-5.91-11.45-13.86-18.88-13.14-6.24.6-6.42,3.44-10.18,3.02-2.09-14.5,12.27-27.45,25.76-27.69,3.86-.07,7.74.49,11.44.93,6.12.73,10.75,4.38,12.5,10.51l5.62-2.64,4.65,7.62c-6.98,6.28-6.93,3.63-16.18,10.49Z" fill="#fff"/>
    </g>
  </g>
</svg>