<?xml version="1.0" encoding="UTF-8"?>
<svg id="Calque_2" data-name="Calque 2" xmlns="http://www.w3.org/2000/svg" width="123.78" height="134.44" viewBox="0 0 123.78 134.44">
  <g id="Calque_1-2" data-name="Calque 1">
    <g>
      <path d="M61.17,119.64l-2.56.12c-.77.04-1.67-.03-2.27-.58-1.22-1.12-.22-3.36-1.19-4.78-.29-.42-1.1-.54-1.64-.52-3.3.11-6.52.5-9.75,1.17-.66.14-1.37.58-1.39,1.34-.01.58.21,1.29.42,1.9.28.82-.12,1.98-1.1,1.96l-4.32-.06c-1.42-.02-2.54-.67-3.47-1.68-1.19-1.31-3.68.67-5.78.37-3.85-.56-7.55-1.62-11.05-3.22-.83-.38-1.53-1.05-1.89-1.81l-1.65-3.48c-1.98-4.99-3.2-10.11-3.64-15.48v-7.01c.88-10.85,4.71-20.62,11.78-28.9l5.73-5.74c7.84-6.66,17.43-10.72,27.67-11.69l2.26-.15h5.09s1.59.09,1.59.09c10.77.93,21.27,5.39,29.25,12.69,6.89,6.29,11.82,13.84,14.47,22.81.98,3.31,1.69,6.58,1.92,10.02l.17,2.56c.08,1.19.14,2.35-.02,3.53l-.14,2.43c-.64,7.02-2.62,13.76-5.99,19.94-.79,1.45-1.88,2.57-3.57,2.57l-11.95.02c-1.46-.4-2.77.09-4.2.22l-1.8.17-2.84.06c-1.02.02-1.81-.59-1.91-1.65-.08-.85-.5-1.58-1.4-1.74l-2.63-.48-2.98-.4-1.42-.16-2.01-.16c-.84-.07-1.87-.19-2.53.45-.87.85-.35,2.29-.82,3.78-.37,1.16-1.45,1.47-2.44,1.52ZM75.89,67.7c.27-.06.82-.36,1.03-.53.48-.57.42-1.44.1-2.12-1.35-2.91-2.87-5.67-4.81-8.21l-1.93-2.21c-1.22-1.4-4.61-4.11-5.75-3.39-.26.17-.67.65-.67,1.06v14.84c0,.68.62,1.61,1.27,1.66,2.94.25,7.68-.46,10.76-1.09ZM53.72,68.93c1.12.06,1.77-.82,1.91-1.86v-14.38c0-.31-.25-.92-.4-1.16-.33-.52-1.15-.52-1.69-.21-1.37.8-2.65,1.7-3.82,2.87-3.24,3.27-5.68,7.26-7.39,11.54-.33.81.33,1.8,1.24,1.98,3.39.68,6.76,1.05,10.14,1.22ZM89.39,63.92c1.76-1.12-.95-3.21-2.58-4.57-1.14-.95-3.3-2.75-3.84-1.93-.1.14-.14.54-.07.7l.98,2.33,1.44,3.24c.67,1.52,2.54,1.22,4.08.23ZM32.12,64.71c.99.27,1.79-.32,2.18-1.19l2.17-4.78c.16-.34.26-.97.06-1.27-.57-.86-3.75,1.76-4.84,2.87l-1.7,1.72c-.48.49-.45,1.38.22,1.84.57.38,1.28.65,1.91.82ZM99.17,87.27c.39,0,1.11-.2,1.41-.4.73-.47.71-1.36.59-2.17-.65-4.28-2.02-8.34-3.95-12.19-.37-.74-1.03-1.62-1.9-1.64-1.01-.02-2.02.47-2.94.82l-2.58.98c-.89.34-1.32,1.29-1.14,2.31.6,3.41,1.09,6.74,1.38,10.2.08,1,.71,2.06,1.86,2.06l7.27.03ZM29.45,85.62l.25-2.18,1.27-8.78c.13-.9-.48-1.79-1.31-2.09l-4.37-1.58c-2.04-.74-2.93,1.54-3.82,3.53-1.46,3.25-2.44,6.64-2.98,10.19-.1.64-.12,1.36.3,1.9.28.36,1.09.64,1.6.64h7.22c.98-.02,1.76-.79,1.86-1.63ZM80.12,87.27c.45,0,1.14-.34,1.33-.64.46-.72.44-1.47.34-2.25-.3-2.45-.51-4.89-1.08-7.27-.29-1.23-1.37-1.68-2.56-1.47-4.09.73-8.08,1.22-12.21,1.51-1.04.07-2.06.65-2.06,1.82v6.58c0,.93.93,1.72,1.93,1.72h14.29ZM55.58,85.36l.02-6.24c0-.67-.4-1.31-.95-1.63-.7-.4-1.48-.41-2.27-.46l-2.13-.14-1.68-.14-7.1-1.09c-.43-.07-1.08-.05-1.52.06-.54.13-.98.87-1.1,1.44-.55,2.66-.88,5.26-1.1,7.99-.04.48.15,1.19.43,1.48.26.27.89.62,1.38.62h14.15c1.08,0,1.88-.88,1.89-1.9ZM89.81,110.1l4.44,1.66c1.08.4,2.12,0,2.7-1.09,2.22-4.14,3.71-8.73,4.27-13.39.12-1.03-.77-1.75-1.7-1.76h-7.58c-1.19-.01-1.86,1.12-1.93,2.16l-.13,1.73-1.22,8.33c-.15,1.05.23,2.02,1.14,2.36ZM67.52,105.76c3.59.35,7.08.74,10.65,1.38,1.23.22,2.32-.29,2.59-1.58.51-2.39.74-4.82,1.06-7.27.09-.73.07-1.46-.36-2.13-.19-.31-.89-.64-1.33-.64h-14.51c-.92,0-1.72.85-1.72,1.72v6.48c-.01.91.81,1.77,1.71,1.86l1.92.19ZM49.4,105.96l2.41-.16,1.79-.16c1.04-.09,2.01-.86,2-1.97l-.02-6.41c0-.83-.82-1.75-1.69-1.75h-14.51c-1.12,0-1.73,1.14-1.64,2.1.24,2.82.58,5.48,1.16,8.21.24,1.13,1.3,1.48,2.64,1.28l7.86-1.15ZM29.33,110.31c1.07-.39,1.88-1.25,1.63-2.5-.69-3.51-1.13-6.97-1.49-10.52-.09-.93-.84-1.76-1.8-1.76h-7.58c-.51-.01-1.17.35-1.37.68-.3.49-.36,1.1-.26,1.72.71,4.45,2.05,8.74,4.18,12.67.56,1.03,1.53,1.59,2.7,1.17l3.99-1.45Z" fill="#fff"/>
      <path d="M78.7,38.62c-3.85-.91-7.61-1.71-11.57-2l-1.57-.11-2.42-.14h-8.34s-1.72.11-1.72.11l-3.31.37c-9.86,1.38-17.86,5.25-25.25,11.89l-5.45,5.43-1.43,1.58-2.26,2.25c-.48.48-1.42.65-1.93.25-.69-.55-.84-1.52-.79-2.35l.12-1.99.14-1.72c.58-6.91,2.96-13.57,7.04-19.2,4-5.52,9.36-9.66,15.47-12.6,4.19-2.01,8.5-3.37,13.01-4.4.58-.13,1.19-.48,1.46-.83,1.01-1.31-.49-3.58-.33-6.28.12-2,.84-3.74,2.16-5.25,4.01-4.56,12.29-4.75,16.17-.95l5.78,5.67,1.32.95c.25.18.99.16,1.27.02,1.06-.8,0-2.37.44-4.48.44-2.04,1.92-3.49,3.95-3.88,2.94-.56,5.02,1.94,6.15,4.6l1.39,3.28c.52,1.22,1.7,1.76,2.97,1.87,1.77.16,3.43.56,5.01,1.34l2.67,1.32c3.99,1.97,8.2,3.09,12.65,3.33,1.85.1,3.63.4,5.03,1.66.85.77,1.62,1.68,1.83,2.82.23,1.23-.07,2.44-.71,3.48l-2.91,4.74c-.87,1.42-1.5,2.93-2.69,4.12-1.52,1.53-3.33,2.52-5.17,3.63-1.3.79-2.29,1.95-3.41,2.94-3.51,3.11-8.94,1.41-13.17.69l-5.28-.9c-2.21-.38-4.22-.74-6.35-1.24ZM87.65,20.68c.69-.06,1.41-.07,2.09-.26.44-.12-.11-1.15-.86-1.76-1.71-1.83-4.01-2.85-6.55-3l-3.7-.03c.3,1.62.94,3.19,2.22,4.27.8.67,1.92.75,2.93.85l2.87.02,1.02-.09Z" fill="#fff"/>
      <path d="M120.52,134.42c1.15.09,2.42-.28,3-1.31,1.32-2.36-2.7-4.86-5.35-5.85-6.48-2.43-13.25-3.82-20.19-4.26-3.03-.19-5.98-.09-9-.01l-4.59.12-3.68.14-3.26.14-2.68.15-2.14.13-2.54.16-2.13.13-2.27.14-2.27.14-2.41.14-2.55.15-2.27.13-2.69.15-2.97.1-1.57.12-12.41-.06c-5.97-.28-15.41-1.91-20.68-4.52-.91-.45-1.75-1.08-2.49-1.75-2.36-2.14-4.18-4.7-5.35-7.68-.54-1.38-.66-2.83-.99-4.26l-.85-3.69c-.21-.92-1-1.65-2.04-1.65C1.56,101.42,0,105.64,0,108.12v6.97c0,2.79.57,5.47,1.32,8.14.59,2.11,2.04,3.65,3.88,4.79,2.49,1.54,5.12,2.56,7.97,3.37,4.74,1.35,9.52,2.1,14.42,2.55l1.68.15,2.54.14,3.6.13h10.93s3.39-.16,3.39-.16l2.64-.11,1.98-.14,1.85-.14,1.84-.14,1.7-.13,1.69-.15,11.64-1.18,1.83-.17,1.44-.13,2.66-.09,1.45-.1,1.27-.12,11.39.05,13.78.13c1.52.01,2.97.47,4.43.81l7.38,1.7,1.81.14Z" fill="#fff"/>
    </g>
  </g>
</svg>