<?xml version="1.0" encoding="UTF-8"?>
<svg id="Calque_2" data-name="Calque 2" xmlns="http://www.w3.org/2000/svg" width="86.42" height="35.19" viewBox="0 0 86.42 35.19">
  <g id="Calque_1-2" data-name="Calque 1">
    <g>
      <path d="M5.74,9.5c1.49,1.28.24,3.87,2.17,3.96,1.51.07,3.47.03,4.46,1.12l.65,1,1.42-.95c.94-.63,2.16-.86,3.25-.45,2.15.82,2.65,4.26,2.87,6.5.35-.47.16-.96.14-1.43-.03-.82.02-1.64.42-2.37.37-.68,1.07-1.17,1.83-1.37.86-.23,1.35-.97,1.14-1.86-1.21-.27-3.03.5-4.32,1.04-.56.24-1.14.05-1.38-.57-.34-.86-.15-1.89.28-2.68.28-.5.69-.53,1.17-.69l2.77-.89c.82-.26,1.6-.52,2.47-.54.98-.02,1.84.52,2.13,1.48.53,1.77,1.13,3.45,1.96,5.11l1.92,3.86.17-1.77c.05-.51-.06-1.05-.38-1.45l-.63-.5c-.32-.78-.7-1.44-1.28-2.04-.19-.2-.3-.48-.23-.76.18-.72,1.61-.71,2.65-.75,1.18-2.48,3.47-2.12,5.86-2.08.53,0,.94.17,1.17.68.57,1.28.58,3.23-.87,3.54s-2.39-.42-2.88.8c-.31.77-.32,1.62-.25,2.47l.26,2.93c.38.04.66.02,1.02-.06.32-.53.65-1.12.74-1.76.16-1.12.38-2.19.89-3.19,1.47-2.88,4.51-2.7,7.34-1.69,1.03-1.08,1.4-2.67,2.38-3.63.37-.37.95-.67,1.47-.47.93.34,1.46,1.26,1.54,2.24.47-.47,1.03-.61,1.56-.4s.95.78.82,1.41l-.75,3.85c-.24,1.24-.47,2.42-.35,3.67.23-.17.64-.32.75-.62.62-1.75.47-4.22,1.09-6.17.11-.35.28-.66.62-.83.7-.22,1.48.01,1.93.59l.19,2.39c1.53.18,2.81-.37,4.08-.39,1.1-.01,1.88.69,2.05,1.82.82-1.63,2.78-2.09,4.46-2.54.15-.41.15-.88-.03-1.31l-2.01.51c-1.83.46-3.78-1.31-3.95-2.95-.05-.45-.04-.82.31-1.1.25-.2.58-.45,1-.28l1.04.92c.36.08.83-.27,1.12-.46.73-.47,1.47-.64,2.31-.51,1.58.25,2.83.66,3.18,2.31l.2,1.9c.04.4.22,1.15.65,1.25.89-.02,2.09-.32,2.36.48.35,1.02-.89,1.93-2.12,2.17.13,1.13.22,2.17.08,3.3.4-.42.67-.87.87-1.4l1.43-3.86,1.55-4.86,1.22-3.5c.29-.85,1.16-1.34,2-1.16s1.51.93,1.42,1.84c-.23,2.56-.93,4.93-1.82,7.33l-1.88,5.1-.63,2.11c-.27.9-.37,2.11.25,2.45.81.45,2.25-.75,3.21-1.53.86-.7,2.1-.58,2.7.35.53.83.41,1.74-.1,2.52-.6.92-1.21,1.78-2.12,2.42-.7.49-1.48.84-2.36.77l-3.41-.72c-.54.44-1.17.89-1.9,1.07l-3.1.77c-1.65.41-3.31.5-4.94-.04s-2.88-1.57-3.5-3.11c-.45-1.13-.45-2.34-.42-3.55l.07-2.55-.11-2.7-1.78.23-1.7.1c.02,1.91,0,3.31-1.45,4.6-.87.78-1.98,1.16-3.15,1.34.06,1.18-.07,2.27-.48,3.32-1.04,2.67-3.92,2.85-6.49,1.9-.54,2.31-1.88,4.35-4.36,4.03-.61-.08-1.18-.18-1.75-.43l-3.43-1.47c-1.36-.58-2.71-.75-4.18-.75-1.02,0-1.92.16-2.77.75l-2.61,1.81c-.88.61-2.02.87-3.05.5-.32-.24-.6-.59-1-.79l-1.76-.88c-.65-.32-1.09-1.1-1.06-1.83.03-.77.71-1.09,1.38-1.12,1.53-.08,3.13-.16,4.55-.81s2.74-1.13,4.36-1.05c1.45.07,2.85.3,4.28.65l4.61,1.15c.82.2,1.64.27,2.46.14,1.54-.25,1.58-2.12,1.35-3.68-1.56.25-3.07-.55-3.61-2.04l-4.94-.14c.34,1.18,2.07.98,3.84,1.78.24.11.41.28.4.51,0,.25-.2.45-.49.52l-1.33.33c-.45.11-.43.41-.6.78-.48,1.03-2.96-.33-3.54-1.38l-1.68-3.04c-.33-.59-.62-1.16-1.09-1.67-.25.13-.48.33-.72.54-1.03.93-2.36,1.4-3.78,1.26-1.33-.13-2.63-.19-3.95-.22-1.4-.03-2.34-1.01-2.31-2.37l.06-2.85c.01-.65-.43-1.09-1.09-1.08-.91.01-1.86.65-1.98,1.61l-.08,3.17c-.01.52-.38,1.17-.93,1.25-1.36.19-2.45-.86-2.59-2.16-.16-1.41,0-3.36-.32-3.68-.41-.4-1.64-.54-2.05,0-.66.87-.89,2.02-1.17,3.07l-.95,3.67c-.42,1.61-.72,3.21-1.47,4.67-.45.87-1.06,1.48-2.04,1.68-1.35.27-3,.49-2.65-.49l2.11-5.9.7-2.7.73-3.16c1.19-5.12-2.27-8.82.55-9.71.63-.15,1.17.03,1.61.43ZM17.37,15.07c-1.87-.75-3.17,1.25-4.3,1.47-.42.08-.88-.38-1.05-.74-.28-.62-.69-.95-1.36-1.12-2.06-.51-4.08.33-4.77-1.75-.37-1.12-.04-2.01-.78-2.71-.18-.17-.42-.27-.63-.24-.15.02-.45.1-.49.32-.1.69.05,1.36.24,2.04.6,2.18.7,4.38.3,6.61l-.77,3.3-.65,2.56-1.92,5.42c1.84-.05,2.23-.34,2.9-1.79.61-1.32.85-2.69,1.21-4.09l.96-3.74c.33-1.17.66-2.3,1.29-3.34.86-.7,2.05-.79,3.05-.35.6.27.9.81.93,1.47l.13,3.06c.03.79.61,1.4,1.4,1.42.17-.05.23-.35.24-.51l.08-3.14c.22-1.52,1.7-2.53,3.19-2.41,1.09.09,1.82.98,1.8,2.05l-.07,2.82c-.02.79.45,1.37,1.26,1.4l2.81.12c1.21.05,2.66.42,3.89-.54l1.28-1c.9-.7,1.74.66,2.34,1.77l1.73,3.18c.2.37,1.45,1.39,1.98,1.32.18-.54.55-.82,1.12-1.06l-1.36-.38c-.98-.27-1.6-.98-1.85-1.95-.06-.22-.17-.43,0-.65.09-.12.26-.22.5-.22l3.02.06,2.91.15c.32.02.4.31.49.57.38,1.15,1.65,1.69,2.8,1.36.22-.06.39-.1.57.02.39.26.5,2.45.26,3.53-.51,2.31-2.91,2.44-5.07,1.9l-4.45-1.12c-1.4-.35-2.77-.58-4.2-.64s-2.6.4-3.87.97c-2.21,1-5.19.75-5.34,1.04s.29.93.96,1.25l1.52.73.87.64c.65.26,1.46-.02,2.03-.41l2.56-1.78c1.05-.73,2.18-.96,3.44-.95,1.6,0,3.07.24,4.55.87l3.37,1.44c.69.29,1.43.42,2.18.34,1.59-.16,2.3-2.01,2.67-3.53.07-.31.2-.55.47-.63.5-.16,1.45.86,3.77.61,1.07-.12,1.86-.82,2.24-1.82.82-2.15-.07-3.72.88-3.83.84-.1,1.66-.29,2.4-.73,1.72-1.03,1.71-2.37,1.7-4.2,0-.5.25-1.02.8-1.03,1.05-.02,2.06-.15,3.1-.32.39-.06.76-.05,1.04.16.27.2.42.54.44.92l.13,2.62-.08,2.46c-.03,1.1-.06,2.19.36,3.22.49,1.19,1.51,2.03,2.71,2.46,1.47.54,2.99.48,4.5.11l3.03-.75c1.49-.37,1.56-1.37,2.48-1.15l2.81.68c1.79.43,3.14-1.26,4.09-2.7.36-.55.45-1.28-.13-1.72-.36-.27-.82-.09-1.14.17-1.31,1.04-2.92,2.36-4.25,1.54-1.21-.75-1-2.41-.57-3.81l.61-2.04,1.86-5.01c.84-2.27,1.49-4.52,1.74-6.94.05-.46-.25-.8-.65-.9s-.77.13-.92.55l-1.39,4-2.01,6.19c-.37,1.13-.82,2.19-1.43,3.19-.3.49-.66.89-1.2,1.08-.32.11-1.06-.01-1.02-.43.1-.98.25-1.91.14-2.93l-.15-1.41c-.11-1.02,1.27-.26,2.24-1.44-.92-.13-1.78.46-2.47-.46-1.22-1.63-.15-3.93-1.66-4.57-.73-.31-1.58-.51-2.39-.39s-1.96,1.48-3.03.8l-.79-.76c-.17,1,.91,2.1,1.85,2.42.45.15.96,0,1.4-.11l1.4-.38c.58-.16,1.11.19,1.29.77s.18,1.27-.06,1.87c-.13.32-.46.48-.78.56-1.19.3-2.91.78-3.49,1.69l-1.03,1.61c-.14.21-.36.29-.61.22-.18-.05-.33-.24-.34-.51l-.06-1.44c-.03-.6-.59-.95-1.16-.86l-1.99.32-2.33.08c-.36.01-.57-.31-.59-.64l-.17-2.21c-.01-.18-.57-.3-.65-.14-.73,1.94-.47,4.62-1.22,6.47-.28.69-1.84,1.68-2.44,1.17-.13-.11-.12-.37-.13-.55-.1-1.44.08-2.77.36-4.17l.77-3.85c.04-.18-.1-.36-.2-.41-.32-.17-.83.3-.91.89l-.49,3.47-.31,3.03c-.07.73-.04,1.97-.82,1.84-1.3-.21-2.5-.58-3.7-1.19-.05-.65-.06-1.47.21-2.08.76-.78,1.41-1.61,1.89-2.63l1.9-4.04c-.04-.44-.42-.93-.78-1.09-.22-.1-.42.09-.55.22-.93.97-1.29,2.62-2.5,3.73-.21.2-.44.3-.73.18-.99-.4-2.01-.63-3.08-.69-1.37-.07-2.52.54-3.17,1.74-.5.93-.69,1.95-.85,3.01-.13.85-.86,2.53-1.57,2.58-.58.04-1.19.1-1.76.02-.36-.06-.31-.48-.33-.75l-.25-3.02c-.13-1.54.08-3.61,1.44-4.14.89-.34,2.48.16,2.74-.37.31-.65.12-1.43-.13-2.08-2.13-.11-4.59-.47-5.32,1.63-.1.28-.37.38-.64.4l-1.7.13c.52.57.87,1.18,1.16,1.89.57.32.94.83,1.08,1.46.15.63.11,1.27.06,1.93l-.15,1.9c-.02.22-.15.36-.32.42-.49.17-1.37-.69-1.8-1.58l-1.72-3.56c-.78-1.61-1.37-3.22-1.86-4.93-.33-1.16-1.72-.89-2.96-.49l-3.2,1.05-.56.09c-.4.59-.56,1.35-.31,2.05,1.69-.65,4.64-1.95,5.57-.71.6.79.18,2.77-1.53,3.25-2.57.73-1.24,3.27-1.78,4.7-.14.37-.47.63-.91.54-.34-.07-.95-.34-1.06-.71-.11-1.88-.57-5.16-2.21-5.82ZM46,20.22c.92.35,1.71.67,2.64.77-.07-1.33.12-2.52.29-3.78l.47-3.56-1.79,3.64c-.37.74-.87,1.37-1.49,1.92l-.12,1.01Z" fill="#fff"/>
      <path d="M85.76,5c-.86,1.1-2.14,1.56-3.45,1.18-1.18-.35-2.13-1.36-2.28-2.73-.12-1.1.42-2.21,1.26-2.82.94-.68,2.09-.81,3.15-.39.9.36,1.56,1.09,1.82,1.89.32,1.03.15,2.03-.5,2.87ZM85.2,4.43c.5-.73.53-1.62.11-2.4-.34-.65-1.02-1.15-1.88-1.24-1.2-.12-2.37.66-2.59,1.84s.37,2.26,1.42,2.7,2.24.11,2.94-.9Z" fill="#fff"/>
      <path d="M52.61,28.96c-.22-.04-.35-.18-.39-.29-.2-.46.4-1.12,1.27-1.46.66-.26,1.36-.72,1.71-1.36.85-1.55,2.5-2.21,3-1.55.18.23.13.51,0,.77l-1.16,2.34c-.62,1.25-1.75,2.03-3.18,1.78l-1.26-.22ZM56.37,26.63l.69-1.37c-.52.18-.71.56-.93.94-.54.92-1.41,1.58-2.43,1.97,1.36.37,2.03-.26,2.67-1.54Z" fill="#fff"/>
      <path d="M16.87,29.73c-.76-.11-1.09.98-1.9,1.3-.3.12-.92.09-1.17-.14-.77-.75.33-2.79,1.3-3.61,1.15-.96,2.87-.75,3.65.53.37.61.2,1.33-.41,1.67-.44.25-.96.32-1.48.25ZM17.06,28.79c.27.05.84,0,.92-.29-.05-.48-.58-.76-.91-.82-1.3-.27-2.24,1.14-2.58,2.49.86-.35,1.2-1.62,2.57-1.38Z" fill="#fff"/>
      <path d="M54.53,6.69c.31,1.29.09,2.77-1.15,3.24-.58.22-1.13.07-1.64-.28-1.7-1.19-1.52-3.95-.2-4.64.59-.31,1.22-.26,1.79.05.61.34,1.04.94,1.21,1.63ZM53.59,6.86c-.21-.79-1.03-1.34-1.61-1-.64.37-.83,2.18.28,3,.23.17.5.29.74.21.75-.28.82-1.33.59-2.2Z" fill="#fff"/>
      <path d="M69.89,27.77c-2.15.79-5.5,1.25-7.38.21-.76-.42-1.21-1.17-1.27-2.04-.16-.73.14-1.47.84-1.74l6.61.1c.75.01,1.48.4,1.66,1.1.22.82-.03,1.6-.47,2.37ZM69.22,26.99c.22-.48.38-1.01.15-1.45-.12-.23-.57-.29-.84-.3l-6.27-.06c-.18.57-.07,1.28.39,1.71,1.25,1.16,4.71.74,6.57.1Z" fill="#fff"/>
      <path d="M41.58,23.25c-.71.41-1.77.39-2.12-.47s-.45-1.92-.53-2.88c-.06-.73.04-1.43.32-2.07.38-.9,1.3-1.36,2.24-1.14,1.88.43,3.28,2.81,2.2,4.71-.49.86-1.23,1.34-2.11,1.85ZM42.85,20.95c.75-1.26-.2-2.91-1.45-3.3-.6-.19-1.14.11-1.34.71-.35,1.06-.11,3.1.31,4.09.17.4,1.85-.44,2.48-1.49Z" fill="#fff"/>
      <path d="M47.5,29.04c-.7.07-1.35-.11-1.97-.33l-1.68-.58c-.17-.06-.34-.23-.33-.42.05-1.16.2-2.28.49-3.43,1.28-.75,2.59.18,4.58.14.35,0,.55.24.55.57,0,.95,0,1.86-.2,2.78-.15.7-.65,1.2-1.44,1.28ZM48.02,27.48l.16-2.12c-1.26.07-2.33-.54-3.36-.38l-.31,2.36,1.27.46c1.02.37,2.18.56,2.25-.32Z" fill="#fff"/>
      <path d="M65.06,23.2c-.89,0-1.55-.6-1.65-1.43-.24-1.91.73-4.16,2.66-4.61.5-.12.97.28,1.13.73.33.94.35,1.87.33,2.86-.03,1.36-1.02,2.44-2.47,2.45ZM64.86,22.22c.69.13,1.49-.3,1.63-1.03.2-1.05.08-2.1-.23-3.11-1.47.45-2.07,2.14-1.9,3.59.03.26.22.49.49.54Z" fill="#fff"/>
      <path d="M27.44,19.98c-.77,1.37-2.44,2.16-3.91,1.1-.7-.5-.96-1.3-.58-2.11.47-1.02,1.4-1.82,2.49-2.12.86-.23,1.59.2,1.93.96.32.71.47,1.47.07,2.18ZM25.95,20.23c.36-.31.74-.66.77-1.15.02-.42-.18-.9-.46-1.21-.41-.44-1.92.29-2.48,1.55-.16.36.01.64.26.84.58.48,1.3.47,1.91-.04Z" fill="#fff"/>
      <path d="M81.58,4.71c-.15-.22-.22-.74-.06-.98l1.1-.69c.16-.1.2-.29.19-.5h-1.3c-.05-.31-.05-.58,0-.88l3.44.06-.07,2.17c-.01.43-.56.63-.93.64-.4,0-.76-.24-.93-.69l-1.44.88ZM84.25,2.55l-.78.02c-.01.63.07,1.1.45,1.04.29-.05.35-.53.33-1.06Z" fill="#fff"/>
    </g>
  </g>
</svg>