<?xml version="1.0" encoding="UTF-8"?>
<svg id="Calque_2" data-name="Calque 2" xmlns="http://www.w3.org/2000/svg" width="784.06mm" height="375.16mm" viewBox="0 0 2222.52 1063.44">
  <g id="Calque_1-2" data-name="Calque 1">
    <g>
      <path d="M2064.79,316.59c26.14,2.61,49.16,10.64,68.52,28.83,55.53,52.19,81.65,165.99,89.21,242.96l-.04,55.8c-.02,24.37-9.35,46.88-20.92,68.36-34.36,63.81-102.32,125.55-177.36,129.33-13.97,2.81-26.29,2.06-40.7.42l-239.4-27.1-127.72-16.89c-21.66-2.86-39.77-.66-56.68,13.82-20.03,17.14-41.67,32.54-66.44,42.84-38.05,15.82-79.17,23.65-119.62,18.36l-38.19-4.99c-50.15-9.44-97.3-25.11-144.63-44.07-48.86-19.58-110.76-45.46-144.81-82.64l-25.49-33.43c-2.92-3.83-6.36-7.13-10.63-6.62s-8.17,2.95-10.39,7.29l-26.82,52.41c-27.34,53.42-92.03,131.67-134.33,178l-21.75,21.55c-72.64,71.98-156.5,112.58-260.85,100.5-72.73-8.42-181.23-45.39-252.06-72.8l-77.92-30.15c-51.14-19.79-98.56-48.65-135.04-90-29.77-33.75-49.91-72.45-64.38-114.65-13.92-40.62-23.28-80.89-26.35-123.69l.05-65.9c3.39-52.49,24.91-98.5,59.29-137.42l16.25-18.39,21.4-23.32,26.36-28.43,15.41-17.29,117.89-135.55,15.56-17.23,52.9-52.69c45.65-45.47,116.64-88.08,179.39-107.09C554.17,11.69,604.16,3.62,656.24.04l99.5-.04c54.48,3.3,103.62,23.01,144.45,58.77,82.89,72.59,127.49,211.86,138.17,320.3l2.36,23.96,1.99,28.46c.86,12.25.59,24.88,8.18,35.23,7.57-1.73,11.04-7.45,14.44-13.21,21.44-36.34,21.88-79.77,63.43-80.54l18.14-1.99,66.67.34c15.01.08,29.95,15.42,28.2,32.64-5.39,52.95-21.14,103.89-35.67,155.79l-22.7,81.06c-6.08,21.71-.01,43,17.81,57.46,33.45,27.15,111.82,12.05,154.9-4.48,67.45-25.88,96.78-84.22,101.91-154.78.85-11.74,1.1-22.54,1.94-34.53l1.71-24.26c.54-7.63,1.47-15.07,1.57-22.48l.92-70.76,2.26-18.06c2.01-16,12.6-30.35,28.77-34.04l82.5-18.8c15.86-3.62,30.82,10.17,32.66,25.47l3.47,28.84,1.81,30.63.69,38.64c.17,9.55,1.15,18.64,1.72,28.38l1.65,28.38c.82,14.09,1.01,28.39,8.9,41.22,7.42-1.99,10.78-8.99,12.83-15.88l18.59-62.55c8.62-29.02,15.99-45.67,48.79-55.08l152.99-43.87,131.73-36.65,48.11-6.77,23.19-.26ZM468.34,461.97c13.41,18.9,33.58,55.02,52.01,39.79,4.5-3.72,10.31-8.12,13.28-13.07,12.85-21.46,20.91-43.69,31-66.79l78.88-180.6c7.33-16.79,14.31-31.67,25.15-46.37,29.85-40.51,96.04-49.28,144.98-56.13l26.51-3.71c6.05-.85,10.76-5.55,11.84-9.8,1.53-6.02-.28-11.46-4.57-16.19-24.04-26.54-77.38-44.81-114.82-47.02-9.03-.53-17.83-1.77-26.26-1.34l-22.72,1.15c-107.32,5.45-224.05,58.35-302.49,131.81l-29.72,27.83-38.58,40.11-14.4,16.18-43.34,52.11c-16.51,19.85-48.56,57.15-34.06,70.42,19.06,17.45,79.2-10.16,108.98-24.01,22.94-10.67,47.82-23.8,68.21-10.49,13.11,8.56,21.33,21.79,29.62,35.12,13.09,21.06,26.21,40.83,40.52,61ZM935.55,538.49c10.49-12.44,13.81-26.22,17.76-40.65,7.49-27.31,12.82-77.7,9.65-105.63-2.16-19.01-2.16-38.38-11.42-55.72-.89-1.67-3.45-3.02-4.73-2.47-4.56,1.96-9.35,33.41-10.33,49.83l-1.27,21.22-2.15,24.4c-.8,9.05-1.1,17.3-2,26.52l-1.98,20.26c-2.19,22.44-5.73,56.32,6.47,62.25ZM313.4,921.64c50.71,13.46,101.08,22.48,153.49,26.87h74.06c75.45-4.69,141.56-41.38,197.59-90.5,32.26-28.29,58.84-59.85,85.04-93.64,9.08-11.72,17-25.24,18.32-40.3,1.64-18.67-11.04-33.89-27.39-39.54l-38.9-13.44c-31.62-15.33-31.52-46.33-29.49-77.23l2-30.39,2.05-26.36,2.07-24.33,2.02-26.44,2.02-26.4,2.04-28.35.23-50.66c.02-4.93-5.82-15.69-11.43-13.96-12.47,3.84-19.39,16.51-25,28.12-33.2,68.73-62.43,137.78-91.87,208.18l-22.24,53.19c-25.34,60.6-55.61,66.26-108.43,90.69-33.52,15.5-63.61,30.48-88.63-2.35-19.72-25.88-35.65-53.07-53.9-80l-27.12-40.02c-4.89-7.21-11.96-14.05-21.92-12.12-12.91,2.51-17.45,32.59-18.9,52.48l-2.05,28.17-9.06,95.82c-2.59,27.44-23.99,43.24-50.44,47.62l-31.1,5.16c-4.96.82-9.07,4.46-10.03,7.58-1.53,4.99-.52,9.78,3.01,13.31,8.75,8.73,17.87,16.11,29.11,21.86,30.46,15.58,61.32,28.1,94.86,37ZM1787.79,682.01c-1.4,11.42-2.51,23.11,5.7,31.28,6.32,6.29,17,5.03,25.66,2.63,39.68-10.96,77.17-25.02,114.86-41.64,22.02-9.71,41.13-22.59,59.26-38.09,44.14-37.75,63.12-97.44,43.82-152.26-7.14-20.27-26.7-31.03-47.46-27.94-18.07,2.69-34.89,9.1-50.66,18.35l-77.9,45.66-21.14,11.46c-26.14,14.17-36.34,21.88-39.99,51.57l-12.16,98.99ZM122.21,654.1l6.25-52.56.55-45.85c.05-4.34-4.32-7.5-7.32-8.19-8.5-1.96-17.69,17.34-22.6,32.62-14.72,45.74-10.2,122.34,6.63,119.67,11-1.74,14.21-26.51,16.5-45.69Z"/>
      <path d="M1606.8,999.92l-.67-72.36,50.04.02.8,62.24c.22,17.37,15.73,27.13,32.11,26.97,14.52-.14,28.87-1.23,40.09-11.32,6.11-5.49,10.01-15.49,10.11-23.97l.64-53.98,48.1-.02,1.46,38.8c12.71-35.68,51.8-48.97,88.59-41.53,16.76,3.39,29.64,11.42,40.25,25.56l.4-63.89,48.73.07v166.46s-48.73.08-48.73.08l-.8-23.08c-4,7-8.52,11.36-14.9,15.41-37.11,23.54-97.46,13.32-113.65-30.9l-.7,38.54h-48.7s-.62-27.14-.62-27.14c-25.18,33.29-82.5,41.48-112.5,19.98-14.29-10.24-19.86-27.72-20.03-45.97ZM1907.98,1009.2c9.44-5.21,12.4-14.79,10.27-23.38-1.85-7.46-6.66-13.6-15.09-17.01-30.55-12.38-68.69-2.58-67.33,22.09,1.53,28,46.35,32.53,72.15,18.3Z"/>
      <path d="M1424.15,972.68c34.25,3.88,70.7,5.16,68.41,41.77-.72,11.41-3.74,21.04-13.34,28.06-12.21,8.93-27.27,13.68-42.88,13.71l-49.31.1c-27.49.06-66.48-16.02-60.66-45.52l48.27.63c3.12,7,7.75,12.15,16.15,13.36,22.51,3.25,52.78,1.91,52.65-9.32-.13-10.47-22.71-10.2-40.05-11.93l-23.99-2.39c-14.44-1.44-30.31-3.18-41.79-13.01-10.13-8.67-11.61-22.67-7.75-34.72,3.48-10.86,12.49-19.31,25.59-23.24,32.35-9.7,67.14-9.98,99.75-1.08,10.14,2.77,17.11,7.27,25.87,15.25-.16-4.91.6-15.74.6-15.74,14.69-.7,16.48-.69,24.38-1.57.13-8.78.13-11.83.18-22.63l46.71-12.11.16,34.76,50.1.54.59,36.04-50.75.04.38,38.18c.19,19.28,26.52,16.49,50.34,10.33l-.53,39.99c-41.3,10.85-98.12,7.86-98.48-34.22l-.47-53.86c-10.38.94-12.35.98-18.91,1.01l-47.06.25c-2.76-18.2-55.89-13.12-59.73-6.36-6.99,12.3,23.99,11.22,45.56,13.66Z"/>
      <path d="M2020.98,996.35l-.82,56.7-46.67-.04v-125.87s46.64-.04,46.64-.04l1.14,59.14c1.96-24.74,17.35-43.94,41.21-53.96,50.88-21.37,127.83-6.78,137.78,43.91,7.01,35.68-12.77,63.9-46.05,74.83-36.74,12.07-93.06,8.87-118.2-21.97-9.61-8.28-11.49-20.4-15.02-32.71ZM2145.77,1007.98c11.51-11.1,10.45-27.73-2.3-37.87-16.52-13.15-58.49-13.1-70.45,7.97-3.43,6.04-3.44,17.99-.03,23.89,12.68,21.92,56.19,22.02,72.78,6.01Z"/>
      <polygon points="2020.25 916.91 1973.54 916.97 1973.55 886.46 2020.18 886.44 2020.25 916.91"/>
    </g>
  </g>
</svg>