<?xml version="1.0" encoding="UTF-8"?>
<svg id="Calque_2" data-name="Calque 2" xmlns="http://www.w3.org/2000/svg" width="291.72mm" height="296.56mm" viewBox="0 0 826.93 840.65">
  <g id="Calque_2-2" data-name="Calque 2">
    <g id="iqGnjb">
      <path d="M793.02,544.88c23.19-41.48,29.04-89.33,33.91-135.92-.31-34.83-4.6-75.6-7.36-107.77C796.24,121.78,721.7-20.95,518.47,2.54c-130.2,4.85-232.34,62.13-314.87,160.51-38.86,46.85-115.62,131.48-155.47,175.7C-35.03,428.06.32,600.39,72.85,686.76c41.03,49.63,109.47,72.52,167.81,94.68,55.82,21.6,141.31,50.73,198.62,57.36,90.57,11.53,162.98-32.12,222.68-96.18,52.72-57.39,104.67-123.81,131.05-197.74ZM102.59,476.49c-3.96,16.49-2.57,72.31-17.92,77.42-16.89,4.81-19.28-108.18,12.58-120,2.37.55,5.81,3.04,5.77,6.46l-.43,36.13ZM664.76,573.04c-1.04,11.87-7.28,22.53-14.44,31.76-54.25,71.87-128.85,139.03-222.71,145.11-82.14,2.63-213.23-13.24-276.99-67.57-20.03-31.49,64.45-2.24,69.78-58.04,1.48-16.55,8.05-82.51,8.75-97.7.73-24.97,11.24-59.27,32.17-31.8,0,0,21.37,31.54,21.37,31.54,14.38,21.22,26.93,42.64,42.47,63.04,19.71,25.87,43.42,14.06,69.83,1.85,41.63-19.25,65.48-23.71,85.44-71.46,28.85-68.88,57.45-138.8,89.91-205.95,4.56-12.23,23.83-35.98,28.71-11.15.78,39.31-3.27,84.13-6.6,123.06.13,33.48-17.7,87.53,20.05,105.57,19.37,7.29,55.7,13.09,52.24,41.74ZM672.71,101.22c-1.42,9.95-23.15,8.85-30.22,10.65-38.57,5.4-90.72,12.3-114.24,44.23-34.31,54.79-75.45,175.21-106.4,231.47-19.4,28.91-35.96,2.4-51.44-21.05-11.28-15.89-21.61-31.47-31.93-48.06-6.53-10.5-13.01-20.93-23.34-27.67-16.07-10.49-35.67-.14-53.75,8.27-23.46,10.91-70.85,32.67-85.87,18.92-15.18-19.69,48.39-76.7,60.99-96.55,78.23-94.8,195.19-171.31,321.43-171.05,29.88-1.67,113.72,15.83,114.77,50.86ZM752.55,394.78c-3.12,11.38-5.73,22.23-14,32.03-15.01-11.63-1.29-64.35-1.97-85.91,2.51-18.85,2.07-63.32,10.83-75.21,11.16,3.37,10.96,35.4,12.73,45.85,2.5,22.01-1.7,61.72-7.6,83.24Z"/>
    </g>
  </g>
</svg>